<mxfile host="app.diagrams.net" agent="Mozilla/5.0 (Windows NT 10.0; Win64; x64) AppleWebKit/537.36 (KHTML, like Gecko) Chrome/137.0.0.0 Safari/537.36 Edg/137.0.0.0" version="27.1.4">
  <diagram name="Página-1" id="Qp81WTghedeLETekoVXW">
    <mxGraphModel grid="1" page="1" gridSize="10" guides="1" tooltips="1" connect="1" arrows="1" fold="1" pageScale="1" pageWidth="1169" pageHeight="827" math="0" shadow="0">
      <root>
        <mxCell id="0" />
        <mxCell id="1" parent="0" />
        <mxCell id="ynxq7Bh6tb8rbRmUgGed-1" value="Selecionar viagem ida/volta" style="shape=umlFrame;whiteSpace=wrap;html=1;pointerEvents=0;width=190;height=30;strokeWidth=2;fontStyle=1" vertex="1" parent="1">
          <mxGeometry x="220" y="260" width="560" height="690" as="geometry" />
        </mxCell>
        <mxCell id="z8qM1aIlUnhPxvKhQxRX-16" style="edgeStyle=orthogonalEdgeStyle;rounded=0;orthogonalLoop=1;jettySize=auto;html=1;entryX=0;entryY=0.5;entryDx=0;entryDy=0;endArrow=open;endFill=0;strokeWidth=2;fontStyle=1" edge="1" parent="1" source="z8qM1aIlUnhPxvKhQxRX-2" target="z8qM1aIlUnhPxvKhQxRX-15">
          <mxGeometry relative="1" as="geometry" />
        </mxCell>
        <mxCell id="z8qM1aIlUnhPxvKhQxRX-19" style="edgeStyle=orthogonalEdgeStyle;rounded=0;orthogonalLoop=1;jettySize=auto;html=1;entryX=0;entryY=0.5;entryDx=0;entryDy=0;endArrow=open;endFill=0;strokeWidth=2;fontStyle=1" edge="1" parent="1" source="z8qM1aIlUnhPxvKhQxRX-3" target="z8qM1aIlUnhPxvKhQxRX-18">
          <mxGeometry relative="1" as="geometry" />
        </mxCell>
        <mxCell id="z8qM1aIlUnhPxvKhQxRX-22" style="edgeStyle=orthogonalEdgeStyle;rounded=0;orthogonalLoop=1;jettySize=auto;html=1;entryX=0;entryY=0.5;entryDx=0;entryDy=0;endArrow=open;endFill=0;strokeWidth=2;fontStyle=1" edge="1" parent="1" source="z8qM1aIlUnhPxvKhQxRX-4" target="z8qM1aIlUnhPxvKhQxRX-21">
          <mxGeometry relative="1" as="geometry" />
        </mxCell>
        <mxCell id="z8qM1aIlUnhPxvKhQxRX-13" style="edgeStyle=orthogonalEdgeStyle;rounded=0;orthogonalLoop=1;jettySize=auto;html=1;entryX=0;entryY=0.5;entryDx=0;entryDy=0;endArrow=open;endFill=0;strokeWidth=2;fontStyle=1" edge="1" parent="1" source="ktqup6rLYjc09gLrCqSE-3" target="z8qM1aIlUnhPxvKhQxRX-12">
          <mxGeometry relative="1" as="geometry" />
        </mxCell>
        <mxCell id="z8qM1aIlUnhPxvKhQxRX-14" style="edgeStyle=orthogonalEdgeStyle;rounded=0;orthogonalLoop=1;jettySize=auto;html=1;entryX=0.5;entryY=0;entryDx=0;entryDy=0;exitX=0.5;exitY=1;exitDx=0;exitDy=0;endArrow=open;endFill=0;strokeWidth=2;fontStyle=1" edge="1" parent="1" source="z8qM1aIlUnhPxvKhQxRX-12" target="z8qM1aIlUnhPxvKhQxRX-2">
          <mxGeometry relative="1" as="geometry">
            <Array as="points">
              <mxPoint x="628" y="440" />
              <mxPoint x="360" y="440" />
            </Array>
          </mxGeometry>
        </mxCell>
        <mxCell id="z8qM1aIlUnhPxvKhQxRX-17" style="edgeStyle=orthogonalEdgeStyle;rounded=0;orthogonalLoop=1;jettySize=auto;html=1;entryX=0.5;entryY=0;entryDx=0;entryDy=0;endArrow=open;endFill=0;strokeWidth=2;fontStyle=1" edge="1" parent="1" source="z8qM1aIlUnhPxvKhQxRX-15" target="z8qM1aIlUnhPxvKhQxRX-3">
          <mxGeometry relative="1" as="geometry">
            <Array as="points">
              <mxPoint x="630" y="510" />
              <mxPoint x="360" y="510" />
            </Array>
          </mxGeometry>
        </mxCell>
        <mxCell id="z8qM1aIlUnhPxvKhQxRX-20" style="edgeStyle=orthogonalEdgeStyle;rounded=0;orthogonalLoop=1;jettySize=auto;html=1;entryX=0.5;entryY=0;entryDx=0;entryDy=0;endArrow=open;endFill=0;strokeWidth=2;fontStyle=1" edge="1" parent="1" source="z8qM1aIlUnhPxvKhQxRX-18" target="z8qM1aIlUnhPxvKhQxRX-4">
          <mxGeometry relative="1" as="geometry">
            <Array as="points">
              <mxPoint x="630" y="580" />
              <mxPoint x="360" y="580" />
            </Array>
          </mxGeometry>
        </mxCell>
        <mxCell id="z8qM1aIlUnhPxvKhQxRX-23" style="edgeStyle=orthogonalEdgeStyle;rounded=0;orthogonalLoop=1;jettySize=auto;html=1;entryX=0.5;entryY=0;entryDx=0;entryDy=0;endArrow=open;endFill=0;strokeWidth=2;fontStyle=1" edge="1" parent="1" source="z8qM1aIlUnhPxvKhQxRX-21" target="z8qM1aIlUnhPxvKhQxRX-5">
          <mxGeometry relative="1" as="geometry">
            <Array as="points">
              <mxPoint x="630" y="650" />
              <mxPoint x="360" y="650" />
            </Array>
          </mxGeometry>
        </mxCell>
        <mxCell id="z8qM1aIlUnhPxvKhQxRX-36" style="edgeStyle=orthogonalEdgeStyle;rounded=0;orthogonalLoop=1;jettySize=auto;html=1;entryX=0;entryY=0.5;entryDx=0;entryDy=0;endArrow=open;endFill=0;strokeWidth=2;fontStyle=1" edge="1" parent="1" source="z8qM1aIlUnhPxvKhQxRX-27" target="z8qM1aIlUnhPxvKhQxRX-11">
          <mxGeometry relative="1" as="geometry" />
        </mxCell>
        <mxCell id="z8qM1aIlUnhPxvKhQxRX-38" value="" style="swimlane;startSize=0;strokeWidth=2;fontStyle=1" vertex="1" parent="1">
          <mxGeometry x="250" y="300" width="250" height="630" as="geometry" />
        </mxCell>
        <mxCell id="ktqup6rLYjc09gLrCqSE-5" value="Usuário" style="text;html=1;align=center;verticalAlign=middle;resizable=0;points=[];autosize=1;strokeWidth=2;fontStyle=1" vertex="1" parent="z8qM1aIlUnhPxvKhQxRX-38">
          <mxGeometry x="80" width="60" height="30" as="geometry" />
        </mxCell>
        <mxCell id="z8qM1aIlUnhPxvKhQxRX-66" value="" style="ellipse;html=1;shape=startState;fillColor=light-dark(#000000,#000000);strokeColor=none;strokeWidth=2;fontStyle=1" vertex="1" parent="z8qM1aIlUnhPxvKhQxRX-38">
          <mxGeometry x="95" y="30" width="30" height="30" as="geometry" />
        </mxCell>
        <mxCell id="ktqup6rLYjc09gLrCqSE-3" value="Selecionar voo" style="rounded=1;whiteSpace=wrap;html=1;arcSize=40;strokeWidth=2;fontStyle=1" vertex="1" parent="z8qM1aIlUnhPxvKhQxRX-38">
          <mxGeometry x="50" y="80" width="120" height="40" as="geometry" />
        </mxCell>
        <mxCell id="z8qM1aIlUnhPxvKhQxRX-2" value="Escolher classe" style="rounded=1;whiteSpace=wrap;html=1;arcSize=40;strokeWidth=2;fontStyle=1" vertex="1" parent="z8qM1aIlUnhPxvKhQxRX-38">
          <mxGeometry x="50" y="160" width="120" height="40" as="geometry" />
        </mxCell>
        <mxCell id="z8qM1aIlUnhPxvKhQxRX-3" value="Escolher assento" style="rounded=1;whiteSpace=wrap;html=1;arcSize=40;strokeWidth=2;fontStyle=1" vertex="1" parent="z8qM1aIlUnhPxvKhQxRX-38">
          <mxGeometry x="50" y="230" width="120" height="40" as="geometry" />
        </mxCell>
        <mxCell id="z8qM1aIlUnhPxvKhQxRX-4" value="Escolher despacho de bagagem" style="rounded=1;whiteSpace=wrap;html=1;arcSize=40;strokeWidth=2;fontStyle=1" vertex="1" parent="z8qM1aIlUnhPxvKhQxRX-38">
          <mxGeometry x="50" y="300" width="120" height="40" as="geometry" />
        </mxCell>
        <mxCell id="z8qM1aIlUnhPxvKhQxRX-5" value="Preencher dados do passageiro" style="rounded=1;whiteSpace=wrap;html=1;arcSize=40;strokeWidth=2;fontStyle=1" vertex="1" parent="z8qM1aIlUnhPxvKhQxRX-38">
          <mxGeometry x="50" y="370" width="120" height="40" as="geometry" />
        </mxCell>
        <mxCell id="z8qM1aIlUnhPxvKhQxRX-29" value="Confirmar voo" style="rounded=1;whiteSpace=wrap;html=1;arcSize=40;strokeWidth=2;fontStyle=1" vertex="1" parent="z8qM1aIlUnhPxvKhQxRX-38">
          <mxGeometry x="50" y="440" width="120" height="40" as="geometry" />
        </mxCell>
        <mxCell id="z8qM1aIlUnhPxvKhQxRX-30" style="edgeStyle=orthogonalEdgeStyle;rounded=0;orthogonalLoop=1;jettySize=auto;html=1;endArrow=open;endFill=0;strokeWidth=2;fontStyle=1" edge="1" parent="z8qM1aIlUnhPxvKhQxRX-38" source="z8qM1aIlUnhPxvKhQxRX-5" target="z8qM1aIlUnhPxvKhQxRX-29">
          <mxGeometry relative="1" as="geometry" />
        </mxCell>
        <mxCell id="z8qM1aIlUnhPxvKhQxRX-27" value="" style="rhombus;whiteSpace=wrap;html=1;fontStyle=1;strokeWidth=2;container=0;" vertex="1" parent="z8qM1aIlUnhPxvKhQxRX-38">
          <mxGeometry x="87.5" y="510" width="45" height="40" as="geometry" />
        </mxCell>
        <mxCell id="z8qM1aIlUnhPxvKhQxRX-32" style="edgeStyle=orthogonalEdgeStyle;rounded=0;orthogonalLoop=1;jettySize=auto;html=1;entryX=0.5;entryY=0;entryDx=0;entryDy=0;endArrow=open;endFill=0;strokeWidth=2;fontStyle=1" edge="1" parent="z8qM1aIlUnhPxvKhQxRX-38" source="z8qM1aIlUnhPxvKhQxRX-29" target="z8qM1aIlUnhPxvKhQxRX-27">
          <mxGeometry relative="1" as="geometry" />
        </mxCell>
        <mxCell id="z8qM1aIlUnhPxvKhQxRX-37" value="[Sim]" style="text;html=1;align=center;verticalAlign=middle;resizable=0;points=[];autosize=1;strokeWidth=2;fontStyle=1" vertex="1" parent="z8qM1aIlUnhPxvKhQxRX-38">
          <mxGeometry x="132.5" y="500" width="50" height="30" as="geometry" />
        </mxCell>
        <mxCell id="z8qM1aIlUnhPxvKhQxRX-35" value="[Não]" style="text;html=1;align=center;verticalAlign=middle;resizable=0;points=[];autosize=1;strokeWidth=2;fontStyle=1" vertex="1" parent="z8qM1aIlUnhPxvKhQxRX-38">
          <mxGeometry x="60" y="550" width="50" height="30" as="geometry" />
        </mxCell>
        <mxCell id="z8qM1aIlUnhPxvKhQxRX-65" value="" style="ellipse;html=1;shape=endState;fillColor=light-dark(#000000,#000000);strokeColor=default;strokeWidth=2;fontStyle=1" vertex="1" parent="z8qM1aIlUnhPxvKhQxRX-38">
          <mxGeometry x="95" y="590" width="30" height="30" as="geometry" />
        </mxCell>
        <mxCell id="z8qM1aIlUnhPxvKhQxRX-67" value="" style="edgeStyle=orthogonalEdgeStyle;rounded=0;orthogonalLoop=1;jettySize=auto;html=1;entryX=0.5;entryY=0;entryDx=0;entryDy=0;endArrow=open;endFill=0;strokeWidth=2;fontStyle=1" edge="1" parent="z8qM1aIlUnhPxvKhQxRX-38" source="z8qM1aIlUnhPxvKhQxRX-27" target="z8qM1aIlUnhPxvKhQxRX-65">
          <mxGeometry relative="1" as="geometry">
            <mxPoint x="110" y="550" as="sourcePoint" />
            <mxPoint x="110" y="720" as="targetPoint" />
          </mxGeometry>
        </mxCell>
        <mxCell id="z8qM1aIlUnhPxvKhQxRX-6" value="" style="edgeStyle=orthogonalEdgeStyle;html=1;verticalAlign=bottom;endArrow=open;endSize=8;rounded=0;strokeWidth=2;fontStyle=1;exitX=0.5;exitY=0.767;exitDx=0;exitDy=0;exitPerimeter=0;" edge="1" parent="z8qM1aIlUnhPxvKhQxRX-38" target="ktqup6rLYjc09gLrCqSE-3" source="z8qM1aIlUnhPxvKhQxRX-66">
          <mxGeometry relative="1" as="geometry">
            <mxPoint x="110" y="130" as="targetPoint" />
            <mxPoint x="110" y="70" as="sourcePoint" />
          </mxGeometry>
        </mxCell>
        <mxCell id="z8qM1aIlUnhPxvKhQxRX-40" value="" style="swimlane;startSize=0;strokeWidth=2;fontStyle=1" vertex="1" parent="1">
          <mxGeometry x="500" y="300" width="255" height="630" as="geometry" />
        </mxCell>
        <mxCell id="z8qM1aIlUnhPxvKhQxRX-64" value="" style="ellipse;html=1;shape=endState;fillColor=light-dark(#000000,#000000);strokeColor=default;strokeWidth=2;fontStyle=1" vertex="1" parent="z8qM1aIlUnhPxvKhQxRX-40">
          <mxGeometry x="115" y="440" width="30" height="30" as="geometry" />
        </mxCell>
        <mxCell id="z8qM1aIlUnhPxvKhQxRX-7" value="Sistema" style="text;html=1;align=center;verticalAlign=middle;resizable=0;points=[];autosize=1;strokeWidth=2;fontStyle=1" vertex="1" parent="z8qM1aIlUnhPxvKhQxRX-40">
          <mxGeometry x="92.5" width="70" height="30" as="geometry" />
        </mxCell>
        <mxCell id="z8qM1aIlUnhPxvKhQxRX-12" value="Exibir classes disponíveis" style="rounded=1;whiteSpace=wrap;html=1;arcSize=40;strokeWidth=2;fontStyle=1" vertex="1" parent="z8qM1aIlUnhPxvKhQxRX-40">
          <mxGeometry x="67.5" y="80" width="120" height="40" as="geometry" />
        </mxCell>
        <mxCell id="z8qM1aIlUnhPxvKhQxRX-15" value="Exibir assentos disponíveis" style="rounded=1;whiteSpace=wrap;html=1;arcSize=40;strokeWidth=2;fontStyle=1" vertex="1" parent="z8qM1aIlUnhPxvKhQxRX-40">
          <mxGeometry x="67.5" y="160" width="120" height="40" as="geometry" />
        </mxCell>
        <mxCell id="z8qM1aIlUnhPxvKhQxRX-18" value="Exibir opções de despacho de bagagem" style="rounded=1;whiteSpace=wrap;html=1;arcSize=40;strokeWidth=2;fontStyle=1" vertex="1" parent="z8qM1aIlUnhPxvKhQxRX-40">
          <mxGeometry x="70" y="230" width="120" height="40" as="geometry" />
        </mxCell>
        <mxCell id="z8qM1aIlUnhPxvKhQxRX-21" value="Exibir formulário do passageiro" style="rounded=1;whiteSpace=wrap;html=1;arcSize=40;strokeWidth=2;fontStyle=1" vertex="1" parent="z8qM1aIlUnhPxvKhQxRX-40">
          <mxGeometry x="67.5" y="300" width="120" height="40" as="geometry" />
        </mxCell>
        <mxCell id="z8qM1aIlUnhPxvKhQxRX-11" value="Exibir resumo da viagem" style="rounded=1;whiteSpace=wrap;html=1;arcSize=40;strokeWidth=2;fontStyle=1" vertex="1" parent="z8qM1aIlUnhPxvKhQxRX-40">
          <mxGeometry x="70" y="370" width="120" height="40" as="geometry" />
        </mxCell>
        <mxCell id="z8qM1aIlUnhPxvKhQxRX-26" style="edgeStyle=orthogonalEdgeStyle;rounded=0;orthogonalLoop=1;jettySize=auto;html=1;entryX=0.5;entryY=0;entryDx=0;entryDy=0;endArrow=open;endFill=0;strokeWidth=2;fontStyle=1" edge="1" parent="z8qM1aIlUnhPxvKhQxRX-40" source="z8qM1aIlUnhPxvKhQxRX-11" target="z8qM1aIlUnhPxvKhQxRX-64">
          <mxGeometry relative="1" as="geometry">
            <mxPoint x="145" y="550" as="targetPoint" />
          </mxGeometry>
        </mxCell>
      </root>
    </mxGraphModel>
  </diagram>
</mxfile>
